<?xml version="1.0" standalone="no"?>
<!DOCTYPE svg PUBLIC "-//W3C//DTD SVG 1.1//EN" "http://www.w3.org/Graphics/SVG/1.1/DTD/svg11.dtd">
<svg xmlns="http://www.w3.org/2000/svg">
<defs >
<font id="SpaceGrotesk" horiz-adv-x="559" ><font-face
    font-family="Space Grotesk Light Light"
    units-per-em="1000"
    panose-1="0 0 0 0 0 0 0 0 0 0"
    ascent="984"
    descent="-292"
    alphabetic="0" />
<glyph unicode=" " horiz-adv-x="258" />
<glyph unicode="!" horiz-adv-x="234" d="M86 170V700H148V170H86ZM117 -14Q92 -14 76 2T60 43Q60 68 76 84T117 100Q142 100 158 84T174 43Q174 18 158 2T117 -14Z" />
<glyph unicode="&quot;" horiz-adv-x="388" d="M74 498V540H98Q130 540 130 572V604H117Q93 604 77 619T60 659Q60 683 76 698T117 714Q141 714 157 698T174 657V574Q174 498 99 498H74ZM228 498V540H252Q284 540 284 572V604H271Q247 604 231 619T214 659Q214
683 230 698T271 714Q295 714 311 698T328 657V574Q328 498 253 498H228Z" />
<glyph unicode="#" horiz-adv-x="625" d="M178 0V212H44V264H178V436H44V488H178V700H234V488H390V700H446V488H581V436H446V264H581V212H446V0H390V212H234V0H178ZM234 264H390V436H234V264Z" />
<glyph unicode="$" horiz-adv-x="616" d="M315 -14Q240 -14 181 12T88 93T54 232V251H118V232Q118 135 173 89T315 42Q402 42 449 82T496 186Q496 228 476 253T419 294T334 322L270 338Q213 353 168 375T97 434T71 528Q71 585 100 627T182 691T303 714Q372 714
427 690T515 620T548 503V456H484V503Q484 558 460 592T395 642T303 658Q230 658 183 625T135 528Q135 486 154 461T209 421T293 394L357 378Q412 365 458 344T532 285T560 186Q560 125 530 80T444 11T315 -14ZM286 -116V816H346V-116H286Z" />
<glyph unicode="%" horiz-adv-x="778" d="M129 -14L85 21L649 714L693 679L129 -14ZM582 -14Q511 -14 468 29T424 146V152Q424 226 467 269T582 312Q653 312 696 269T740 152V146Q740 73 697 30T582 -14ZM582 34Q630 34 658 64T686 144V154Q686 204 658 234T582
264Q534 264 506 234T478 154V144Q478 95 506 65T582 34ZM196 388Q125 388 82 431T38 548V554Q38 628 81 671T196 714Q267 714 310 671T354 554V548Q354 475 311 432T196 388ZM196 436Q244 436 272 466T300 546V556Q300 606 272 636T196 666Q148 666 120 636T92
556V546Q92 497 120 467T196 436Z" />
<glyph unicode="&amp;" horiz-adv-x="610" d="M256 0Q200 0 153 21T78 84T50 184Q50 228 68 261T113 316T171 349V359Q127 373 93 410T58 515Q58 575 86 616T160 679T260 700H393V646H265Q205 646 163 614T120 512Q120 466 140 437T193 394T265 380H420V495H480V380H580V326H480V0H256ZM261
54H420V326H261Q199 326 156 293T112 190Q112 120 156 87T261 54Z" />
<glyph unicode="&apos;" horiz-adv-x="234" d="M74 498V540H98Q130 540 130 572V604H117Q93 604 77 619T60 659Q60 683 76 698T117 714Q141 714 157 698T174 657V574Q174 498 99 498H74Z" />
<glyph unicode="(" horiz-adv-x="371" d="M361 -230Q270 -230 204 -199T101 -98T64 84V426Q64 539 100 608T203 708T361 740V688Q237 686 180 621T122 421V89Q122 -44 179 -110T361 -178V-230Z" />
<glyph unicode=")" horiz-adv-x="371" d="M10 -230V-178Q135 -176 192 -110T249 89V421Q249 555 192 620T10 688V740Q101 740 167 709T270 608T307 426V84Q307 -28 271 -97T168 -198T10 -230Z" />
<glyph unicode="*" horiz-adv-x="512" d="M48 469V515H136L204 508L209 518L155 561L93 623L125 655L187 593L230 539L240 544L233 612V700H279V612L272 544L282 539L325 593L387 655L419 623L357 561L303 518L308 508L376 515H464V469H376L308 476L303 466L357
423L419 361L387 329L325 391L282 445L272 440L279 372V284H233V372L240 440L230 445L187 391L125 329L93 361L155 423L209 466L204 476L136 469H48Z" />
<glyph unicode="+" horiz-adv-x="620" d="M281 140V322H100V378H281V560H339V378H520V322H339V140H281Z" />
<glyph unicode="," horiz-adv-x="234" d="M74 -116V-74H98Q130 -74 130 -42V-10H117Q93 -10 77 5T60 45Q60 69 76 84T117 100Q141 100 157 84T174 43V-40Q174 -116 99 -116H74Z" />
<glyph unicode="-" horiz-adv-x="464" d="M84 230V286H380V230H84Z" />
<glyph unicode="." horiz-adv-x="234" d="M117 -14Q92 -14 76 2T60 43Q60 68 76 84T117 100Q142 100 158 84T174 43Q174 18 158 2T117 -14Z" />
<glyph unicode="/" horiz-adv-x="363" d="M6 -200L300 700H361L67 -200H6Z" />
<glyph unicode="0" horiz-adv-x="638" d="M319 -14Q201 -14 133 57T64 270V430Q64 571 132 642T319 714Q437 714 505 643T574 430V270Q574 129 506 58T319 -14ZM319 42Q415 42 463 101T512 266V434Q512 539 464 598T319 658Q223 658 175 599T126 434V266Q126 161
174 102T319 42Z" />
<glyph unicode="1" horiz-adv-x="404" d="M256 0V662H243L90 402H20L197 700H318V0H256Z" />
<glyph unicode="2" horiz-adv-x="606" d="M58 0V69Q58 144 85 187T160 257T275 303L325 319Q374 334 411 355T470 411T491 497V501Q491 574 441 616T312 658Q229 658 176 614T123 478V465H63V478Q63 554 95 606T183 686T312 714Q384 714 438 688T523 614T553 503V494Q553
426 527 383T452 312T339 263L289 248Q235 231 198 213T140 164T120 79V56H547V0H58Z" />
<glyph unicode="3" horiz-adv-x="603" d="M303 -14Q230 -14 173 14T83 95T50 225V244H112V224Q112 139 165 91T303 42Q389 42 437 88T485 204V210Q485 262 461 294T395 341T303 357H200V441L484 634V644H66V700H546V610L265 419V409H320Q385 409 436 387T517 321T547
212V202Q547 137 517 89T432 13T303 -14Z" />
<glyph unicode="4" horiz-adv-x="620" d="M408 0V144H34V218L350 700H470V200H592V144H470V0H408ZM99 200H408V664H396L99 210V200Z" />
<glyph unicode="5" horiz-adv-x="598" d="M301 -14Q227 -14 172 15T87 97T56 219V232H118V222Q118 132 169 87T300 42Q386 42 434 91T483 227V235Q483 318 437 367T314 416Q270 416 241 402T196 367T169 327H77V700H529V644H139V373H151Q162 396 183 418T239 455T328
470Q389 470 438 442T516 361T545 236V226Q545 156 516 102T432 17T301 -14Z" />
<glyph unicode="6" horiz-adv-x="610" d="M309 -14Q240 -14 185 14T97 95T64 222V469Q64 545 93 599T178 684T311 714Q388 714 441 686T521 611T548 505H486Q486 574 442 616T311 658Q223 658 175 610T126 476V369H138Q157 403 201 431T324 460Q389 460 441 432T523
352T554 229V217Q554 146 522 94T434 14T309 -14ZM309 42Q390 42 441 89T492 218V226Q492 281 469 321T404 383T309 406Q255 406 214 384T150 321T126 226V218Q126 136 177 89T309 42Z" />
<glyph unicode="7" horiz-adv-x="568" d="M160 0V24Q160 58 166 80T189 135L468 635V644H35V700H534V627L242 103Q231 83 227 67T222 24V0H160Z" />
<glyph unicode="8" horiz-adv-x="632" d="M316 -14Q234 -14 176 10T86 79T54 183V193Q54 247 77 282T135 335T198 358V370Q169 377 139 395T88 445T68 523V533Q68 591 100 631T189 692T316 714Q387 714 443 693T531 631T564 533V523Q564 477 544 446T494 396T434
370V358Q464 354 497 336T554 282T578 193V183Q578 124 547 80T457 11T316 -14ZM316 42Q407 42 461 78T516 184V192Q516 263 462 298T316 334Q225 334 171 299T116 192V184Q116 114 170 78T316 42ZM316 390Q402 390 452 424T502 520V528Q502 590 452 624T316 658Q230
658 180 624T130 528V520Q130 458 180 424T316 390Z" />
<glyph unicode="9" horiz-adv-x="610" d="M299 -14Q222 -14 169 14T89 89T62 195H124Q124 126 169 84T299 42Q388 42 436 90T484 224V331H472Q453 297 409 269T286 240Q222 240 170 268T87 349T56 471V483Q56 555 88 606T176 686T301 714Q371 714 426 686T513
606T546 478V231Q546 156 517 101T433 16T299 -14ZM301 294Q355 294 396 316T460 379T484 474V482Q484 564 433 611T301 658Q220 658 169 611T118 482V474Q118 420 141 380T206 317T301 294Z" />
<glyph unicode=":" horiz-adv-x="234" d="M117 -14Q92 -14 76 2T60 43Q60 68 76 84T117 100Q142 100 158 84T174 43Q174 18 158 2T117 -14ZM117 386Q92 386 76 402T60 443Q60 468 76 484T117 500Q142 500 158 484T174 443Q174 418 158 402T117 386Z" />
<glyph unicode=";" horiz-adv-x="234" d="M117 386Q92 386 76 402T60 443Q60 468 76 484T117 500Q142 500 158 484T174 443Q174 418 158 402T117 386ZM74 -116V-74H98Q130 -74 130 -42V-10H117Q93 -10 77 5T60 45Q60 69 76 84T117 100Q141 100 157 84T174 43V-40Q174
-116 99 -116H74Z" />
<glyph unicode="&lt;" horiz-adv-x="620" d="M520 130L100 310V390L520 570V500L164 355V345L520 200V130Z" />
<glyph unicode="=" horiz-adv-x="620" d="M100 392V448H520V392H100ZM100 252V308H520V252H100Z" />
<glyph unicode="&gt;" horiz-adv-x="620" d="M100 130V200L457 345V355L100 500V570L520 390V310L100 130Z" />
<glyph unicode="?" horiz-adv-x="581" d="M249 170V245Q249 289 264 313T322 355L354 369Q408 391 439 424T471 518Q471 564 447 595T383 643T294 660Q245 660 203 643T134 592T108 504V463H46V505Q46 573 78 619T166 690T294 714Q365 714 419 689T503 619T533
518Q533 463 512 426T457 363T379 320L347 306Q328 298 320 285T311 246V170H249ZM280 -14Q255 -14 239 2T223 43Q223 68 239 84T280 100Q305 100 321 84T337 43Q337 18 321 2T280 -14Z" />
<glyph unicode="@" horiz-adv-x="1031" d="M535 -200Q405 -200 303 -149T141 0T82 240V260Q82 402 137 500T290 649T515 700H535Q659 700 753 651T900 508T953 284V265Q953 129 906 65T773 0H750Q712 0 693 18T673 67V80H661Q652 59 634 38T585 1T503 -14Q445
-14 398 17T323 104T295 230V248Q295 319 322 374T397 460T502 492Q551 492 582 478T631 444T659 403H671V478H729V75Q729 62 734 57T752 52H767Q835 52 864 102T893 271V282Q893 399 849 480T724 603T535 646H517Q405 646 321 603T189 473T142 258V242Q142 114
192 28T332 -102T537 -146H729V-200H535ZM513 41Q582 41 626 92T671 234V244Q671 335 627 386T513 437Q444 437 400 385T355 245V233Q355 145 399 93T513 41Z" />
<glyph unicode="A" horiz-adv-x="628" d="M28 0L257 700H371L600 0H533L473 186H155L95 0H28ZM173 244H455L320 662H308L173 244Z" />
<glyph unicode="B" horiz-adv-x="660" d="M48 0V58H148V642H48V700H395Q455 700 502 678T575 617T602 525V517Q602 468 583 436T537 386T484 360V348Q510 342 537 324T583 273T602 192V182Q602 125 575 84T500 22T392 0H48ZM212 58H386Q461 58 499 93T538 187V195Q538
254 500 289T386 324H212V58ZM212 382H390Q459 382 498 416T538 507V517Q538 573 499 607T390 642H212V382Z" />
<glyph unicode="C" horiz-adv-x="641" d="M334 -14Q211 -14 138 58T64 271V429Q64 569 137 641T334 714Q456 714 520 646T585 459V454H521V461Q521 547 476 601T334 656Q237 656 183 597T128 431V269Q128 162 182 103T334 44Q430 44 475 98T521 239V254H585V241Q585
123 521 55T334 -14Z" />
<glyph unicode="D" horiz-adv-x="662" d="M48 0V58H148V642H48V700H314Q451 700 527 631T604 414V285Q604 138 528 69T314 0H48ZM212 58H314Q424 58 482 111T540 282V417Q540 536 482 588T314 641H212V58Z" />
<glyph unicode="E" horiz-adv-x="567" d="M86 0V700H509V642H150V380H481V322H150V58H513V0H86Z" />
<glyph unicode="F" horiz-adv-x="542" d="M86 0V700H502V642H150V380H473V322H150V0H86Z" />
<glyph unicode="G" horiz-adv-x="659" d="M330 -14Q250 -14 190 18T97 114T64 271V429Q64 569 137 641T334 714Q456 714 518 646T581 465V460H517V467Q517 522 498 564T439 631T334 656Q237 656 183 597T128 431V269Q128 162 182 103T334 44Q429 44 474 99T519
247V267H288V323H581V0H523V79H511Q499 55 477 34T420 -1T330 -14Z" />
<glyph unicode="H" horiz-adv-x="656" d="M86 0V700H150V380H506V700H570V0H506V322H150V0H86Z" />
<glyph unicode="I" horiz-adv-x="236" d="M86 0V700H150V0H86Z" />
<glyph unicode="J" horiz-adv-x="588" d="M261 -14Q161 -14 103 43T44 210V259H108V210Q108 137 146 91T262 44Q342 44 373 90T404 210V642H280V700H542V642H468V210Q468 101 417 44T261 -14Z" />
<glyph unicode="K" horiz-adv-x="604" d="M86 0V700H150V384H162L486 700H576L214 354L588 0H497L162 322H150V0H86Z" />
<glyph unicode="L" horiz-adv-x="547" d="M86 0V700H150V58H518V0H86Z" />
<glyph unicode="M" horiz-adv-x="858" d="M86 0V700H211L423 38H435L647 700H772V0H710V662H698L486 0H372L160 662H148V0H86Z" />
<glyph unicode="N" horiz-adv-x="661" d="M86 0V700H213L499 38H511V700H575V0H448L162 663H150V0H86Z" />
<glyph unicode="O" horiz-adv-x="666" d="M333 -14Q210 -14 137 58T64 271V429Q64 569 137 641T333 714Q456 714 529 642T602 429V271Q602 131 529 59T333 -14ZM333 44Q431 44 484 103T538 269V431Q538 538 485 597T333 656Q236 656 182 597T128 431V269Q128 162
182 103T333 44Z" />
<glyph unicode="P" horiz-adv-x="600" d="M86 0V700H345Q407 700 456 677T535 609T564 502V490Q564 427 535 383T456 315T345 292H150V0H86ZM150 350H338Q413 350 456 387T500 491V501Q500 569 458 605T338 642H150V350Z" />
<glyph unicode="Q" horiz-adv-x="666" d="M333 -14Q210 -14 137 58T64 271V429Q64 569 137 641T333 714Q456 714 529 642T602 429V271Q602 131 529 59T333 -14ZM333 44Q431 44 484 103T538 269V431Q538 538 485 597T333 656Q236 656 182 597T128 431V269Q128 162
182 103T333 44ZM371 -154Q339 -154 320 -135T301 -82V0H364V-69Q364 -99 392 -99H461V-154H371Z" />
<glyph unicode="R" horiz-adv-x="631" d="M86 0V700H360Q425 700 474 678T552 615T581 514V504Q581 433 547 393T467 339V327Q502 326 526 305T550 238V0H486V231Q486 263 469 280T416 297H150V0H86ZM150 355H354Q432 355 474 391T517 496V501Q517 569 476 605T354
642H150V355Z" />
<glyph unicode="S" horiz-adv-x="616" d="M315 -14Q240 -14 181 12T88 93T54 232V251H118V232Q118 135 173 89T315 42Q402 42 449 82T496 186Q496 228 476 253T419 294T334 322L270 338Q213 353 168 375T97 434T71 528Q71 585 100 627T182 691T303 714Q372 714
427 690T515 620T548 503V456H484V503Q484 558 460 592T395 642T303 658Q230 658 183 625T135 528Q135 486 154 461T209 421T293 394L357 378Q412 365 458 344T532 285T560 186Q560 125 530 80T444 11T315 -14Z" />
<glyph unicode="T" horiz-adv-x="588" d="M262 0V642H28V700H560V642H326V0H262Z" />
<glyph unicode="U" horiz-adv-x="664" d="M332 -14Q257 -14 201 12T112 93T80 229V700H144V229Q144 135 193 90T332 44Q421 44 470 89T520 229V700H584V229Q584 147 553 93T464 13T332 -14Z" />
<glyph unicode="V" horiz-adv-x="620" d="M253 0L28 700H95L304 37H316L525 700H592L367 0H253Z" />
<glyph unicode="W" horiz-adv-x="866" d="M163 0L40 700H105L217 38H229L374 700H492L637 38H649L761 700H826L703 0H584L439 662H427L282 0H163Z" />
<glyph unicode="X" horiz-adv-x="635" d="M36 0L270 353L40 700H117L311 397H323L518 700H595L365 353L599 0H522L323 309H311L113 0H36Z" />
<glyph unicode="Y" horiz-adv-x="604" d="M270 0V277L16 700H92L296 350H308L512 700H588L334 277V0H270Z" />
<glyph unicode="Z" horiz-adv-x="578" d="M52 0V88L460 632V642H64V700H520V612L112 68V58H530V0H52Z" />
<glyph unicode="[" horiz-adv-x="326" d="M156 -230Q126 -230 107 -210T88 -161V671Q88 700 107 720T156 740H306V688H173Q146 688 146 658V-148Q146 -178 173 -178H306V-230H156Z" />
<glyph unicode="\" horiz-adv-x="363" d="M296 -200L2 700H63L357 -200H296Z" />
<glyph unicode="]" horiz-adv-x="326" d="M20 -230V-178H153Q180 -178 180 -148V658Q180 688 153 688H20V740H170Q200 740 219 720T238 671V-161Q238 -190 219 -210T170 -230H20Z" />
<glyph unicode="^" horiz-adv-x="620" d="M75 424L261 700H359L545 424H469L315 656H305L152 424H75Z" />
<glyph unicode="_" horiz-adv-x="620" d="M82 -106V-50H538V-106H82Z" />
<glyph unicode="`" horiz-adv-x="274" d="M152 568L60 700H137L214 568H152Z" />
<glyph unicode="a" horiz-adv-x="574" d="M237 -14Q186 -14 145 3T79 55T55 137Q55 186 79 218T144 266T235 282H413V321Q413 380 379 413T280 446Q216 446 179 415T128 330L70 347Q82 390 108 424T177 479T280 500Q372 500 422 452T473 318V82Q473 52 501 52H548V0H484Q453
0 435 18T417 69V76H407Q394 54 374 33T320 -1T237 -14ZM241 40Q318 40 365 86T413 218V230H236Q184 230 150 208T115 138Q115 91 150 66T241 40Z" />
<glyph unicode="b" horiz-adv-x="646" d="M348 -14Q268 -14 224 17T158 89H146V0H88V700H148V401H160Q173 426 196 448T257 485T348 500Q414 500 467 470T551 383T582 249V237Q582 160 551 104T466 17T348 -14ZM334 40Q417 40 468 93T520 239V247Q520 340 469
393T334 446Q252 446 200 393T148 247V239Q148 146 200 93T334 40Z" />
<glyph unicode="c" horiz-adv-x="603" d="M310 -14Q239 -14 184 16T96 104T64 238V248Q64 326 96 382T183 469T310 500Q380 500 428 474T504 405T539 315L480 303Q475 342 455 374T399 426T310 446Q257 446 215 422T149 353T124 247V239Q124 178 148 134T215 65T310
40Q390 40 432 81T484 183L543 171Q534 124 506 82T429 13T310 -14Z" />
<glyph unicode="d" horiz-adv-x="646" d="M298 -14Q233 -14 180 16T96 103T64 237V249Q64 326 95 382T179 469T298 500Q352 500 389 486T449 449T486 401H498V700H558V0H500V89H488Q467 49 423 18T298 -14ZM312 40Q395 40 446 93T498 239V247Q498 340 447 393T312
446Q230 446 178 393T126 247V239Q126 146 178 93T312 40Z" />
<glyph unicode="e" horiz-adv-x="598" d="M312 -14Q237 -14 182 17T95 106T64 237V249Q64 324 95 380T180 468T305 500Q373 500 425 472T508 390T538 262V230H124Q127 139 179 90T312 40Q380 40 417 71T475 147L529 123Q514 90 488 59T419 7T312 -14ZM125 282H477Q473
361 426 403T305 446Q232 446 184 404T125 282Z" />
<glyph unicode="f" horiz-adv-x="444" d="M190 0V432H30V486H190V624Q190 660 209 680T268 700H388V646H280Q250 646 250 616V486H414V432H250V0H190Z" />
<glyph unicode="g" horiz-adv-x="644" d="M64 241V253Q64 330 95 385T180 470T298 500Q378 500 422 469T488 397H500V486H556V-124Q556 -160 537 -180T479 -200H147V-146H467Q498 -146 498 -116V93H486Q473 69 450 46T389 9T298 -6Q233 -6 180 24T95 109T64 241ZM312
48Q395 48 446 100T498 243V251Q498 343 447 394T312 446Q230 446 178 395T126 251V243Q126 152 178 100T312 48Z" />
<glyph unicode="h" horiz-adv-x="612" d="M88 0V700H148V401H160Q172 425 193 446T249 481T336 495Q389 495 433 473T503 407T530 296V0H470V292Q470 372 430 406T323 441Q248 441 198 392T148 243V0H88Z" />
<glyph unicode="i" horiz-adv-x="236" d="M88 0V486H148V0H88ZM118 570Q96 570 81 585T66 622Q66 645 81 659T118 674Q141 674 155 660T170 622Q170 600 156 585T118 570Z" />
<glyph unicode="j" horiz-adv-x="238" d="M-10 -200V-146H60Q90 -146 90 -116V486H150V-124Q150 -160 131 -180T72 -200H-10ZM120 570Q98 570 83 585T68 622Q68 645 83 659T120 674Q143 674 157 660T172 622Q172 600 158 585T120 570Z" />
<glyph unicode="k" horiz-adv-x="527" d="M88 0V700H148V278H160L409 486H497L209 249L505 0H418L160 219H148V0H88Z" />
<glyph unicode="l" horiz-adv-x="236" d="M88 0V700H148V0H88Z" />
<glyph unicode="m" horiz-adv-x="862" d="M88 0V486H146V422H158Q173 449 206 472T300 496Q359 496 395 469T448 404H460Q477 442 513 469T614 496Q664 496 701 476T759 419T780 333V0H720V327Q720 379 689 410T600 442Q542 442 503 405T464 295V0H404V327Q404
379 373 410T284 442Q226 442 187 405T148 295V0H88Z" />
<glyph unicode="n" horiz-adv-x="612" d="M88 0V486H146V396H158Q176 435 217 465T336 496Q389 496 433 474T503 408T530 296V0H470V292Q470 372 430 407T323 442Q248 442 198 393T148 243V0H88Z" />
<glyph unicode="o" horiz-adv-x="620" d="M310 -14Q236 -14 181 17T95 105T64 237V249Q64 324 94 380T180 468T310 500Q384 500 439 469T525 381T556 249V237Q556 162 526 106T440 18T310 -14ZM310 40Q396 40 446 94T496 239V247Q496 337 446 391T310 446Q225
446 175 392T124 247V239Q124 149 174 95T310 40Z" />
<glyph unicode="p" horiz-adv-x="646" d="M88 -200V486H146V397H158Q179 437 223 468T348 500Q413 500 466 470T550 383T582 249V237Q582 160 551 104T467 17T348 -14Q295 -14 258 0T197 38T160 85H148V-200H88ZM334 40Q417 40 468 93T520 239V247Q520 340 469
393T334 446Q252 446 200 393T148 247V239Q148 146 200 93T334 40Z" />
<glyph unicode="q" horiz-adv-x="646" d="M498 -200V85H486Q473 61 450 38T389 1T298 -14Q233 -14 180 16T95 103T64 237V249Q64 327 95 383T180 469T298 500Q378 500 422 469T488 397H500V486H558V-200H498ZM312 40Q395 40 446 93T498 239V247Q498 340 447 393T312
446Q230 446 178 393T126 247V239Q126 146 178 93T312 40Z" />
<glyph unicode="r" horiz-adv-x="369" d="M88 0V486H146V425H158Q172 458 199 473T276 488H333V432H269Q214 432 181 401T148 304V0H88Z" />
<glyph unicode="s" horiz-adv-x="528" d="M281 -14Q193 -14 131 28T54 167L113 178Q121 125 145 95T205 51T281 38Q341 38 377 62T414 130Q414 174 380 191T288 218L242 226Q196 234 159 250T101 295T79 365Q79 428 128 464T260 500Q343 500 393 463T457 354L401
342Q391 400 354 424T260 448Q205 448 172 427T139 365Q139 325 169 307T251 279L297 271Q347 263 387 248T450 204T474 130Q474 61 422 24T281 -14Z" />
<glyph unicode="t" horiz-adv-x="462" d="M264 0Q225 0 206 20T186 76V432H30V486H186V668H246V486H416V432H246V84Q246 54 276 54H390V0H264Z" />
<glyph unicode="u" horiz-adv-x="611" d="M275 -10Q223 -10 179 12T108 78T81 190V486H141V194Q141 115 181 80T288 44Q363 44 413 93T463 243V486H523V0H465V90H453Q435 51 394 21T275 -10Z" />
<glyph unicode="v" horiz-adv-x="536" d="M220 0L38 486H102L262 46H274L434 486H498L316 0H220Z" />
<glyph unicode="w" horiz-adv-x="808" d="M168 0L58 486H120L216 40H228L353 486H455L580 40H592L688 486H750L640 0H535L410 446H398L273 0H168Z" />
<glyph unicode="x" horiz-adv-x="594" d="M50 0L253 247L57 486H132L291 287H303L462 486H537L341 247L544 0H468L303 207H291L126 0H50Z" />
<glyph unicode="y" horiz-adv-x="611" d="M149 -200V-146H433Q463 -146 463 -116V84H451Q439 60 418 39T362 4T275 -10Q223 -10 179 12T108 78T81 189V486H141V193Q141 114 181 79T288 44Q363 44 413 93T463 242V486H523V-124Q523 -160 504 -180T445 -200H149Z" />
<glyph unicode="z" horiz-adv-x="522" d="M64 0V82L391 422V432H74V486H452V404L124 64V54H460V0H64Z" />
<glyph unicode="{" horiz-adv-x="418" d="M248 -230Q219 -230 200 -210T180 -161V167Q180 226 115 226H40V284H115Q180 284 180 343V671Q180 700 199 720T248 740H398V688H265Q238 688 238 658V341Q238 304 220 283T165 261H162V249H165Q201 249 219 228T238 169V-148Q238
-178 265 -178H398V-230H248Z" />
<glyph unicode="|" horiz-adv-x="232" d="M86 -246V806H146V-246H86Z" />
<glyph unicode="}" horiz-adv-x="418" d="M20 -230V-178H153Q180 -178 180 -148V169Q180 206 198 227T253 249H256V261H253Q217 261 199 282T180 341V658Q180 688 153 688H20V740H170Q199 740 218 720T238 671V343Q238 284 303 284H378V226H303Q238 226 238 167V-161Q238
-190 219 -210T170 -230H20Z" />
<glyph unicode="~" horiz-adv-x="620" d="M137 282L100 324L182 391Q199 405 216 416T256 427Q285 427 300 411T332 369Q342 353 349 344T370 334Q380 334 387 338T401 349L483 418L520 376L438 309Q422 296 405 285T364 273Q335 273 320 289T288 331Q278 347
271 356T250 366Q240 366 234 362T219 351L137 282Z" />
<glyph unicode="&#xa0;" horiz-adv-x="258" />
<glyph unicode="&#xa1;" horiz-adv-x="234" d="M86 -200V316H148V-200H86ZM117 500Q142 500 158 484T174 443Q174 418 158 402T117 386Q92 386 76 402T60 443Q60 468 76 484T117 500Z" />
<glyph unicode="&#xa2;" horiz-adv-x="599" d="M310 -14Q239 -14 184 16T96 104T64 238V248Q64 326 96 382T183 469T310 500Q380 500 428 474T504 405T539 315L480 303Q475 342 455 374T399 426T310 446Q257 446 215 422T149 353T124 247V239Q124 178 148 134T215
65T310 40Q390 40 432 81T484 183L543 171Q534 124 506 82T429 13T310 -14ZM283 -116V612H341V-116H283Z" />
<glyph unicode="&#xa3;" horiz-adv-x="624" d="M62 0V56H136V317H66V369H136V501Q136 606 191 660T343 714Q439 714 494 660T550 501V442H488V499Q488 573 451 615T343 658Q273 658 236 616T198 499V369H333V317H198V56H555V0H62Z" />
<glyph unicode="&#xa4;" horiz-adv-x="620" d="M98 96L56 138L114 196Q87 228 74 267T60 350Q60 394 73 433T114 504L56 563L98 605L156 546Q188 571 227 585T310 600Q354 600 393 586T464 546L523 605L565 563L506 504Q531 473 545 434T560 350Q560 307 546 268T506
196L565 138L523 96L464 154Q433 127 394 114T310 100Q267 100 228 113T156 154L98 96ZM310 156Q364 156 407 181T476 249T501 350Q501 408 476 451T407 520T310 545Q256 545 213 520T145 451T119 350Q119 293 144 249T213 181T310 156Z" />
<glyph unicode="&#xa5;" horiz-adv-x="620" d="M278 0V292L265 298L24 700H100L304 350H316L520 700H596L355 298L342 292V0H278ZM116 170V222H504V170H116ZM116 282V334H504V282H116Z" />
<glyph unicode="&#xa6;" horiz-adv-x="232" d="M86 366V806H146V366H86ZM86 -246V194H146V-246H86Z" />
<glyph unicode="&#xa7;" horiz-adv-x="508" d="M263 -14Q163 -14 106 39T48 184V207H108V189Q108 120 148 80T264 40Q323 40 355 70T388 147Q388 194 355 216T249 251Q156 267 114 301T72 396Q72 420 78 439T101 477Q72 514 72 564V568Q72 614 96 646T161 696T251
714Q336 714 390 673T444 553V518H384V549Q384 587 365 611T316 648T252 660Q203 660 168 638T132 567Q132 514 171 492T278 455Q360 437 405 408T450 318Q450 269 423 235Q435 216 441 196T448 153V146Q448 76 402 31T263 -14ZM378 273Q383 281 386 291T390 314Q390
353 355 372T251 404Q219 410 192 419T145 439Q132 421 132 396Q132 358 163 338T274 304Q312 297 335 290T378 273Z" />
<glyph unicode="&#xa8;" horiz-adv-x="402" d="M291 570Q269 570 255 584T240 621Q240 644 254 658T291 672Q314 672 328 658T342 621Q342 599 328 585T291 570ZM111 570Q89 570 75 584T60 621Q60 644 74 658T111 672Q134 672 148 658T162 621Q162 599 148 585T111 570Z" />
<glyph unicode="&#xa9;" horiz-adv-x="698" d="M345 -12Q261 -12 198 20T99 121T64 297V403Q64 511 99 579T197 679T345 712H355Q440 712 502 680T599 579T634 403V297Q634 190 600 122T503 21T355 -12H345ZM346 40H354Q459 40 518 101T578 298V402Q578 538 519
599T354 660H346Q240 660 181 599T121 402V298Q121 162 180 101T346 40ZM356 124Q287 124 247 164T206 285V411Q206 494 247 536T354 578Q422 578 459 537T496 430V409H437V436Q437 473 419 499T355 525Q317 525 291 500T265 425V271Q265 225 292 202T355 178Q393
178 415 200T437 269V291H496V270Q496 206 461 165T356 124Z" />
<glyph unicode="&#xaa;" horiz-adv-x="420" d="M176 340Q121 340 82 367T42 448Q42 502 81 526T174 550H296V574Q296 615 274 638T204 662Q157 662 133 640T101 587L50 599Q62 642 99 674T204 706Q271 706 308 671T346 572V416Q346 394 366 394H398V350H359Q333
350 318 363T302 401H290Q283 386 270 372T234 349T176 340ZM180 386Q235 386 265 413T296 497V506H176Q139 506 116 493T92 448Q92 417 116 402T180 386Z" />
<glyph unicode="&#xab;" horiz-adv-x="668" d="M592 26L306 210V284L592 468H598V403L360 252V242L598 91V26H592ZM338 26L52 210V284L338 468H344V403L106 252V242L344 91V26H338Z" />
<glyph unicode="&#xac;" horiz-adv-x="620" d="M464 237V322H102V378H518V237H464Z" />
<glyph unicode="&#xad;" horiz-adv-x="464" d="M84 230V286H380V230H84Z" />
<glyph unicode="&#xae;" horiz-adv-x="537" d="M269 298Q209 298 162 324T87 398T59 506Q59 567 86 614T161 687T269 714Q329 714 376 688T451 614T479 506Q479 445 452 398T377 325T269 298ZM269 336Q346 336 392 382T439 506Q439 583 393 629T269 676Q193 676
146 630T99 506Q99 429 146 383T269 336ZM197 397V619H282Q319 619 338 601T357 557Q357 537 348 523T317 501V495Q334 494 341 484T349 460V397H311V459Q311 480 290 480H235V397H197ZM235 514H284Q301 514 310 525T319 550Q319 564 310 574T284 585H235V514Z"
/>
<glyph unicode="&#xaf;" horiz-adv-x="420" d="M60 578V630H360V578H60Z" />
<glyph unicode="&#xb0;" horiz-adv-x="376" d="M188 414Q146 414 112 433T58 486T38 564Q38 608 58 642T112 695T188 714Q231 714 264 695T318 642T338 564Q338 520 318 486T265 433T188 414ZM188 468Q230 468 256 494T282 564Q282 608 256 634T188 660Q146 660
120 634T94 564Q94 521 120 495T188 468Z" />
<glyph unicode="&#xb1;" horiz-adv-x="620" d="M281 142V322H100V378H281V558H339V378H520V322H339V142H281ZM100 0V56H520V0H100Z" />
<glyph unicode="&#xb2;" horiz-adv-x="367" d="M28 350V375Q28 427 63 461T169 511Q228 525 256 544T285 597Q285 629 259 649T188 670Q142 670 113 649T80 582L30 584Q36 650 79 682T188 714Q254 714 294 683T335 597Q335 542 301 515T204 474Q144 460 115 443T81
394H333V350H28Z" />
<glyph unicode="&#xb3;" horiz-adv-x="382" d="M190 336Q126 336 80 368T30 463L80 467Q83 424 114 402T190 380Q236 380 265 400T294 455Q294 493 267 509T188 526H129V576L265 646V656H38V700H343V643L206 573V563Q271 562 307 537T344 455Q344 419 324 393T269
351T190 336Z" />
<glyph unicode="&#xb4;" horiz-adv-x="274" d="M60 556L138 688H214L122 556H60Z" />
<glyph unicode="&#xb5;" horiz-adv-x="620" d="M85 -200V486H145V194Q145 115 184 80T288 44Q359 44 407 93T455 243V486H515V82Q515 52 543 52H590V0H526Q495 0 477 18T459 69V88H447Q431 50 392 20T281 -10Q236 -10 205 6T155 44H143V-200H85Z" />
<glyph unicode="&#xb6;" horiz-adv-x="562" d="M264 0V314H254Q189 314 139 336T61 400T32 502V512Q32 572 60 614T139 678T254 700H476V0H416V645H324V0H264ZM255 368H264V645H255Q173 645 133 607T92 510V504Q92 446 132 407T255 368Z" />
<glyph unicode="&#xb7;" horiz-adv-x="174" d="M87 231Q62 231 46 247T30 288Q30 313 46 329T87 345Q112 345 128 329T144 288Q144 263 128 247T87 231Z" />
<glyph unicode="&#xb8;" horiz-adv-x="321" d="M161 -202Q131 -202 106 -193T60 -168L86 -128Q102 -140 120 -148T161 -156Q182 -156 196 -148T211 -120Q211 -103 198 -94T161 -85H125L136 22H183L176 -48Q215 -48 238 -67T261 -124Q261 -150 248 -167T212 -193T161
-202Z" />
<glyph unicode="&#xb9;" horiz-adv-x="246" d="M144 350V638H132L75 544H20L117 700H194V350H144Z" />
<glyph unicode="&#xba;" horiz-adv-x="438" d="M219 340Q140 340 91 388T42 523Q42 609 91 657T219 706Q299 706 347 658T396 523Q396 437 348 389T219 340ZM219 384Q275 384 310 422T345 523Q345 586 310 624T219 662Q163 662 128 624T93 523Q93 460 128 422T219 384Z" />
<glyph unicode="&#xbb;" horiz-adv-x="668" d="M324 26V91L562 242V252L324 403V468H330L616 284V210L330 26H324ZM70 26V91L308 242V252L70 403V468H76L362 284V210L76 26H70Z" />
<glyph unicode="&#xbc;" horiz-adv-x="809" d="M144 350V638H132L75 544H20L117 700H194V350H144ZM103 -12L64 19L627 712L666 681L103 -12ZM658 0V88H437V142L623 350H708V132H791V88H708V0H658ZM499 132H658V307H646L499 142V132Z" />
<glyph unicode="&#xbd;" horiz-adv-x="823" d="M144 350V638H132L75 544H20L117 700H194V350H144ZM103 -12L64 19L627 712L666 681L103 -12ZM484 0V25Q484 77 519 111T625 161Q684 175 712 194T741 247Q741 279 715 299T644 320Q598 320 569 299T536 232L486 234Q492
300 535 332T644 364Q710 364 750 333T791 247Q791 192 757 165T660 124Q600 110 571 93T537 44H789V0H484Z" />
<glyph unicode="&#xbe;" horiz-adv-x="896" d="M190 336Q126 336 80 368T30 463L80 467Q83 424 114 402T190 380Q236 380 265 400T294 455Q294 493 267 509T188 526H129V576L265 646V656H38V700H343V643L206 573V563Q271 562 307 537T344 455Q344 419 324 393T269
351T190 336ZM190 -12L151 19L714 712L753 681L190 -12ZM745 0V88H524V142L710 350H795V132H878V88H795V0H745ZM586 132H745V307H733L586 142V132Z" />
<glyph unicode="&#xbf;" horiz-adv-x="581" d="M287 -216Q216 -216 162 -191T78 -121T48 -20Q48 35 69 72T125 134T202 178L234 192Q254 200 262 213T270 252V316H332V253Q332 209 317 186T259 143L227 129Q174 106 142 74T110 -20Q110 -65 134 -97T198 -145T287
-162Q336 -162 378 -145T447 -93T473 -6V35H535V-7Q535 -74 503 -121T415 -192T287 -216ZM300 500Q325 500 341 484T357 443Q357 418 341 402T300 386Q275 386 259 402T243 443Q243 468 259 484T300 500Z" />
<glyph unicode="&#xc0;" horiz-adv-x="628" d="M28 0L257 700H371L600 0H533L473 186H155L95 0H28ZM173 244H455L320 662H308L173 244ZM299 762L217 880H295L361 762H299Z" />
<glyph unicode="&#xc1;" horiz-adv-x="628" d="M28 0L257 700H371L600 0H533L473 186H155L95 0H28ZM173 244H455L320 662H308L173 244ZM267 758L333 876H411L329 758H267Z" />
<glyph unicode="&#xc2;" horiz-adv-x="628" d="M28 0L257 700H371L600 0H533L473 186H155L95 0H28ZM173 244H455L320 662H308L173 244ZM147 758L279 876H349L481 758H400L320 834H308L228 758H147Z" />
<glyph unicode="&#xc3;" horiz-adv-x="628" d="M28 0L257 700H371L600 0H533L473 186H155L95 0H28ZM173 244H455L320 662H308L173 244ZM194 763L154 787L186 840Q196 857 212 869T253 882Q276 882 294 871T332 837Q346 821 355 815T374 808Q385 808 391 813T404
829L434 877L474 853L442 800Q432 784 417 771T375 758Q352 758 334 769T296 803Q282 819 274 825T254 832Q244 832 237 826T223 810L194 763Z" />
<glyph unicode="&#xc4;" horiz-adv-x="628" d="M28 0L257 700H371L600 0H533L473 186H155L95 0H28ZM173 244H455L320 662H308L173 244ZM408 762Q386 762 372 776T357 813Q357 836 371 850T408 864Q431 864 445 850T459 813Q459 791 445 777T408 762ZM220 762Q198
762 184 776T169 813Q169 836 183 850T220 864Q243 864 257 850T271 813Q271 791 257 777T220 762Z" />
<glyph unicode="&#xc5;" horiz-adv-x="628" d="M28 0L257 700H371L600 0H533L473 186H155L95 0H28ZM173 244H455L320 662H308L173 244ZM314 748Q274 748 246 774T218 842Q218 884 246 910T314 936Q355 936 383 910T411 842Q411 800 383 774T314 748ZM314 794Q337
794 350 807T363 842Q363 863 350 876T314 890Q292 890 279 877T266 842Q266 821 279 808T314 794Z" />
<glyph unicode="&#xc6;" horiz-adv-x="835" d="M394 0V700H777V642H458V380H749V322H458V58H781V0H394ZM28 0L334 700H394V662H383L203 244H394V186H178L98 0H28Z" />
<glyph unicode="&#xc7;" horiz-adv-x="641" d="M334 -14Q211 -14 138 58T64 271V429Q64 569 137 641T334 714Q456 714 520 646T585 459V454H521V461Q521 547 476 601T334 656Q237 656 183 597T128 431V269Q128 162 182 103T334 44Q430 44 475 98T521 239V254H585V241Q585
123 521 55T334 -14ZM335 -202Q305 -202 280 -193T234 -168L260 -128Q276 -140 294 -148T335 -156Q356 -156 370 -148T385 -120Q385 -103 372 -94T335 -85H299L310 22H357L350 -48Q389 -48 412 -67T435 -124Q435 -150 422 -167T386 -193T335 -202Z" />
<glyph unicode="&#xc8;" horiz-adv-x="567" d="M86 0V700H509V642H150V380H481V322H150V58H513V0H86ZM289 762L207 880H285L351 762H289Z" />
<glyph unicode="&#xc9;" horiz-adv-x="567" d="M86 0V700H509V642H150V380H481V322H150V58H513V0H86ZM257 758L323 876H401L319 758H257Z" />
<glyph unicode="&#xca;" horiz-adv-x="567" d="M86 0V700H509V642H150V380H481V322H150V58H513V0H86ZM137 758L269 876H339L471 758H390L310 834H298L218 758H137Z" />
<glyph unicode="&#xcb;" horiz-adv-x="567" d="M86 0V700H509V642H150V380H481V322H150V58H513V0H86ZM398 762Q376 762 362 776T347 813Q347 836 361 850T398 864Q421 864 435 850T449 813Q449 791 435 777T398 762ZM210 762Q188 762 174 776T159 813Q159 836
173 850T210 864Q233 864 247 850T261 813Q261 791 247 777T210 762Z" />
<glyph unicode="&#xcc;" horiz-adv-x="236" d="M86 0V700H150V0H86ZM359 762L277 880H355L421 762H359Z" />
<glyph unicode="&#xcd;" horiz-adv-x="236" d="M86 0V700H150V0H86ZM71 758L137 876H215L133 758H71Z" />
<glyph unicode="&#xce;" horiz-adv-x="236" d="M86 0V700H150V0H86ZM207 758L339 876H409L541 758H460L380 834H368L288 758H207Z" />
<glyph unicode="&#xcf;" horiz-adv-x="236" d="M86 0V700H150V0H86ZM468 762Q446 762 432 776T417 813Q417 836 431 850T468 864Q491 864 505 850T519 813Q519 791 505 777T468 762ZM280 762Q258 762 244 776T229 813Q229 836 243 850T280 864Q303 864 317 850T331
813Q331 791 317 777T280 762Z" />
<glyph unicode="&#xd0;" horiz-adv-x="662" d="M48 0V58H148V642H48V700H314Q451 700 527 631T604 414V285Q604 138 528 69T314 0H48ZM212 58H314Q424 58 482 111T540 282V417Q540 536 482 588T314 641H212V58ZM304 320V370H592V320H304Z" />
<glyph unicode="&#xd1;" horiz-adv-x="661" d="M86 0V700H213L499 38H511V700H575V0H448L162 663H150V0H86ZM215 763L175 787L207 840Q217 857 233 869T274 882Q297 882 315 871T353 837Q367 821 376 815T395 808Q406 808 412 813T425 829L455 877L495 853L463
800Q453 784 438 771T396 758Q373 758 355 769T317 803Q303 819 295 825T275 832Q265 832 258 826T244 810L215 763Z" />
<glyph unicode="&#xd2;" horiz-adv-x="666" d="M333 -14Q210 -14 137 58T64 271V429Q64 569 137 641T333 714Q456 714 529 642T602 429V271Q602 131 529 59T333 -14ZM333 44Q431 44 484 103T538 269V431Q538 538 485 597T333 656Q236 656 182 597T128 431V269Q128
162 182 103T333 44ZM318 762L236 880H314L380 762H318Z" />
<glyph unicode="&#xd3;" horiz-adv-x="666" d="M333 -14Q210 -14 137 58T64 271V429Q64 569 137 641T333 714Q456 714 529 642T602 429V271Q602 131 529 59T333 -14ZM333 44Q431 44 484 103T538 269V431Q538 538 485 597T333 656Q236 656 182 597T128 431V269Q128
162 182 103T333 44ZM286 758L352 876H430L348 758H286Z" />
<glyph unicode="&#xd4;" horiz-adv-x="666" d="M333 -14Q210 -14 137 58T64 271V429Q64 569 137 641T333 714Q456 714 529 642T602 429V271Q602 131 529 59T333 -14ZM333 44Q431 44 484 103T538 269V431Q538 538 485 597T333 656Q236 656 182 597T128 431V269Q128
162 182 103T333 44ZM166 758L298 876H368L500 758H419L339 834H327L247 758H166Z" />
<glyph unicode="&#xd5;" horiz-adv-x="666" d="M333 -14Q210 -14 137 58T64 271V429Q64 569 137 641T333 714Q456 714 529 642T602 429V271Q602 131 529 59T333 -14ZM333 44Q431 44 484 103T538 269V431Q538 538 485 597T333 656Q236 656 182 597T128 431V269Q128
162 182 103T333 44ZM213 763L173 787L205 840Q215 857 231 869T272 882Q295 882 313 871T351 837Q365 821 374 815T393 808Q404 808 410 813T423 829L453 877L493 853L461 800Q451 784 436 771T394 758Q371 758 353 769T315 803Q301 819 293 825T273 832Q263 832
256 826T242 810L213 763Z" />
<glyph unicode="&#xd6;" horiz-adv-x="666" d="M333 -14Q210 -14 137 58T64 271V429Q64 569 137 641T333 714Q456 714 529 642T602 429V271Q602 131 529 59T333 -14ZM333 44Q431 44 484 103T538 269V431Q538 538 485 597T333 656Q236 656 182 597T128 431V269Q128
162 182 103T333 44ZM427 762Q405 762 391 776T376 813Q376 836 390 850T427 864Q450 864 464 850T478 813Q478 791 464 777T427 762ZM239 762Q217 762 203 776T188 813Q188 836 202 850T239 864Q262 864 276 850T290 813Q290 791 276 777T239 762Z" />
<glyph unicode="&#xd7;" horiz-adv-x="620" d="M158 157L118 197L271 350L118 503L158 543L310 390L462 543L502 503L349 350L502 197L462 157L310 311L158 157Z" />
<glyph unicode="&#xd8;" horiz-adv-x="666" d="M333 -14Q210 -14 137 58T64 271V429Q64 569 137 641T333 714Q456 714 529 642T602 429V271Q602 131 529 59T333 -14ZM333 44Q431 44 484 103T538 269V431Q538 538 485 597T333 656Q236 656 182 597T128 431V269Q128
162 182 103T333 44ZM194 -84L147 -66L473 772L519 754L194 -84Z" />
<glyph unicode="&#xd9;" horiz-adv-x="664" d="M332 -14Q257 -14 201 12T112 93T80 229V700H144V229Q144 135 193 90T332 44Q421 44 470 89T520 229V700H584V229Q584 147 553 93T464 13T332 -14ZM317 762L235 880H313L379 762H317Z" />
<glyph unicode="&#xda;" horiz-adv-x="664" d="M332 -14Q257 -14 201 12T112 93T80 229V700H144V229Q144 135 193 90T332 44Q421 44 470 89T520 229V700H584V229Q584 147 553 93T464 13T332 -14ZM285 758L351 876H429L347 758H285Z" />
<glyph unicode="&#xdb;" horiz-adv-x="664" d="M332 -14Q257 -14 201 12T112 93T80 229V700H144V229Q144 135 193 90T332 44Q421 44 470 89T520 229V700H584V229Q584 147 553 93T464 13T332 -14ZM165 758L297 876H367L499 758H418L338 834H326L246 758H165Z" />
<glyph unicode="&#xdc;" horiz-adv-x="664" d="M332 -14Q257 -14 201 12T112 93T80 229V700H144V229Q144 135 193 90T332 44Q421 44 470 89T520 229V700H584V229Q584 147 553 93T464 13T332 -14ZM426 762Q404 762 390 776T375 813Q375 836 389 850T426 864Q449
864 463 850T477 813Q477 791 463 777T426 762ZM238 762Q216 762 202 776T187 813Q187 836 201 850T238 864Q261 864 275 850T289 813Q289 791 275 777T238 762Z" />
<glyph unicode="&#xdd;" horiz-adv-x="604" d="M270 0V277L16 700H92L296 350H308L512 700H588L334 277V0H270ZM255 758L321 876H399L317 758H255Z" />
<glyph unicode="&#xde;" horiz-adv-x="600" d="M150 158V216H338Q413 216 456 253T500 357V366Q500 434 458 470T338 507H150V565H345Q407 565 456 542T535 474T564 367V356Q564 293 535 249T456 181T345 158H150ZM86 0V700H150V0H86Z" />
<glyph unicode="&#xdf;" horiz-adv-x="618" d="M402 -14Q345 -14 301 5T229 60T194 149L250 161Q262 97 302 68T402 39Q461 39 494 65T528 140Q528 172 510 193T464 231T405 261L369 278Q335 294 318 315T301 361Q301 394 320 413T369 448Q404 468 431 494T458
564Q458 611 421 636T331 661Q289 661 247 640T176 573T147 450V0H88V446Q88 530 119 590T205 682T331 714Q388 714 429 694T494 640T517 565Q517 523 500 493T455 442T392 401Q375 392 368 383T361 363Q361 340 394 326L437 305Q475 288 509 268T565 217T587 140Q587
93 564 58T500 5T402 -14Z" />
<glyph unicode="&#xe0;" horiz-adv-x="574" d="M237 -14Q186 -14 145 3T79 55T55 137Q55 186 79 218T144 266T235 282H413V321Q413 380 379 413T280 446Q216 446 179 415T128 330L70 347Q82 390 108 424T177 479T280 500Q372 500 422 452T473 318V82Q473 52 501
52H548V0H484Q453 0 435 18T417 69V76H407Q394 54 374 33T320 -1T237 -14ZM241 40Q318 40 365 86T413 218V230H236Q184 230 150 208T115 138Q115 91 150 66T241 40ZM263 568L171 700H248L325 568H263Z" />
<glyph unicode="&#xe1;" horiz-adv-x="574" d="M237 -14Q186 -14 145 3T79 55T55 137Q55 186 79 218T144 266T235 282H413V321Q413 380 379 413T280 446Q216 446 179 415T128 330L70 347Q82 390 108 424T177 479T280 500Q372 500 422 452T473 318V82Q473 52 501
52H548V0H484Q453 0 435 18T417 69V76H407Q394 54 374 33T320 -1T237 -14ZM241 40Q318 40 365 86T413 218V230H236Q184 230 150 208T115 138Q115 91 150 66T241 40ZM239 556L317 688H393L301 556H239Z" />
<glyph unicode="&#xe2;" horiz-adv-x="574" d="M237 -14Q186 -14 145 3T79 55T55 137Q55 186 79 218T144 266T235 282H413V321Q413 380 379 413T280 446Q216 446 179 415T128 330L70 347Q82 390 108 424T177 479T280 500Q372 500 422 452T473 318V82Q473 52 501
52H548V0H484Q453 0 435 18T417 69V76H407Q394 54 374 33T320 -1T237 -14ZM241 40Q318 40 365 86T413 218V230H236Q184 230 150 208T115 138Q115 91 150 66T241 40ZM118 556L244 688H320L446 556H372L288 644H276L192 556H118Z" />
<glyph unicode="&#xe3;" horiz-adv-x="574" d="M237 -14Q186 -14 145 3T79 55T55 137Q55 186 79 218T144 266T235 282H413V321Q413 380 379 413T280 446Q216 446 179 415T128 330L70 347Q82 390 108 424T177 479T280 500Q372 500 422 452T473 318V82Q473 52 501
52H548V0H484Q453 0 435 18T417 69V76H407Q394 54 374 33T320 -1T237 -14ZM241 40Q318 40 365 86T413 218V230H236Q184 230 150 208T115 138Q115 91 150 66T241 40ZM172 547L130 570L160 626Q170 644 186 655T224 667Q245 667 260 659T294 628Q308 612 317 602T337
592Q347 592 353 597T364 611L392 662L434 639L404 583Q394 565 379 554T340 542Q319 542 304 550T270 581Q257 597 248 607T227 617Q217 617 211 612T200 598L172 547Z" />
<glyph unicode="&#xe4;" horiz-adv-x="574" d="M237 -14Q186 -14 145 3T79 55T55 137Q55 186 79 218T144 266T235 282H413V321Q413 380 379 413T280 446Q216 446 179 415T128 330L70 347Q82 390 108 424T177 479T280 500Q372 500 422 452T473 318V82Q473 52 501
52H548V0H484Q453 0 435 18T417 69V76H407Q394 54 374 33T320 -1T237 -14ZM241 40Q318 40 365 86T413 218V230H236Q184 230 150 208T115 138Q115 91 150 66T241 40ZM372 570Q350 570 336 584T321 621Q321 644 335 658T372 672Q395 672 409 658T423 621Q423 599
409 585T372 570ZM192 570Q170 570 156 584T141 621Q141 644 155 658T192 672Q215 672 229 658T243 621Q243 599 229 585T192 570Z" />
<glyph unicode="&#xe5;" horiz-adv-x="574" d="M237 -14Q186 -14 145 3T79 55T55 137Q55 186 79 218T144 266T235 282H413V321Q413 380 379 413T280 446Q216 446 179 415T128 330L70 347Q82 390 108 424T177 479T280 500Q372 500 422 452T473 318V82Q473 52 501
52H548V0H484Q453 0 435 18T417 69V76H407Q394 54 374 33T320 -1T237 -14ZM241 40Q318 40 365 86T413 218V230H236Q184 230 150 208T115 138Q115 91 150 66T241 40ZM282 544Q242 544 214 570T186 638Q186 680 214 706T282 732Q323 732 351 706T379 638Q379 596
351 570T282 544ZM282 590Q305 590 318 603T331 638Q331 659 318 672T282 686Q260 686 247 673T234 638Q234 617 247 604T282 590Z" />
<glyph unicode="&#xe6;" horiz-adv-x="946" d="M670 -14Q597 -14 543 20T460 114T430 247Q430 319 459 376T541 466T661 500Q728 500 778 472T857 390T886 263V227H486Q491 140 540 90T669 40Q734 40 769 71T824 146L876 119Q858 84 833 54T768 5T670 -14ZM251
37Q328 37 376 84T425 217V227H243Q188 227 151 205T114 136Q114 90 153 64T251 37ZM249 -14Q165 -14 110 24T55 135Q55 208 108 243T242 278H425V321Q425 380 388 413T285 446Q219 446 179 415T125 332L69 349Q81 391 108 425T179 479T285 500Q353 500 398 472T462
397H483L461 253L476 110H451Q438 77 413 49T348 4T249 -14ZM486 278H825Q822 360 778 402T661 445Q589 445 542 401T486 278Z" />
<glyph unicode="&#xe7;" horiz-adv-x="603" d="M310 -14Q239 -14 184 16T96 104T64 238V248Q64 326 96 382T183 469T310 500Q380 500 428 474T504 405T539 315L480 303Q475 342 455 374T399 426T310 446Q257 446 215 422T149 353T124 247V239Q124 178 148 134T215
65T310 40Q390 40 432 81T484 183L543 171Q534 124 506 82T429 13T310 -14ZM314 -202Q284 -202 259 -193T213 -168L239 -128Q255 -140 273 -148T314 -156Q335 -156 349 -148T364 -120Q364 -103 351 -94T314 -85H278L289 22H336L329 -48Q368 -48 391 -67T414 -124Q414
-150 401 -167T365 -193T314 -202Z" />
<glyph unicode="&#xe8;" horiz-adv-x="598" d="M312 -14Q237 -14 182 17T95 106T64 237V249Q64 324 95 380T180 468T305 500Q373 500 425 472T508 390T538 262V230H124Q127 139 179 90T312 40Q380 40 417 71T475 147L529 123Q514 90 488 59T419 7T312 -14ZM125
282H477Q473 361 426 403T305 446Q232 446 184 404T125 282ZM286 568L194 700H271L348 568H286Z" />
<glyph unicode="&#xe9;" horiz-adv-x="598" d="M312 -14Q237 -14 182 17T95 106T64 237V249Q64 324 95 380T180 468T305 500Q373 500 425 472T508 390T538 262V230H124Q127 139 179 90T312 40Q380 40 417 71T475 147L529 123Q514 90 488 59T419 7T312 -14ZM125
282H477Q473 361 426 403T305 446Q232 446 184 404T125 282ZM262 556L340 688H416L324 556H262Z" />
<glyph unicode="&#xea;" horiz-adv-x="598" d="M312 -14Q237 -14 182 17T95 106T64 237V249Q64 324 95 380T180 468T305 500Q373 500 425 472T508 390T538 262V230H124Q127 139 179 90T312 40Q380 40 417 71T475 147L529 123Q514 90 488 59T419 7T312 -14ZM125
282H477Q473 361 426 403T305 446Q232 446 184 404T125 282ZM141 556L267 688H343L469 556H395L311 644H299L215 556H141Z" />
<glyph unicode="&#xeb;" horiz-adv-x="598" d="M312 -14Q237 -14 182 17T95 106T64 237V249Q64 324 95 380T180 468T305 500Q373 500 425 472T508 390T538 262V230H124Q127 139 179 90T312 40Q380 40 417 71T475 147L529 123Q514 90 488 59T419 7T312 -14ZM125
282H477Q473 361 426 403T305 446Q232 446 184 404T125 282ZM395 570Q373 570 359 584T344 621Q344 644 358 658T395 672Q418 672 432 658T446 621Q446 599 432 585T395 570ZM215 570Q193 570 179 584T164 621Q164 644 178 658T215 672Q238 672 252 658T266 621Q266
599 252 585T215 570Z" />
<glyph unicode="&#xec;" horiz-adv-x="236" d="M88 0V486H148V0H88ZM355 568L263 700H340L417 568H355Z" />
<glyph unicode="&#xed;" horiz-adv-x="236" d="M88 0V486H148V0H88ZM75 556L153 688H229L137 556H75Z" />
<glyph unicode="&#xee;" horiz-adv-x="236" d="M88 0V486H148V0H88ZM210 556L336 688H412L538 556H464L380 644H368L284 556H210Z" />
<glyph unicode="&#xef;" horiz-adv-x="236" d="M88 0V486H148V0H88ZM464 570Q442 570 428 584T413 621Q413 644 427 658T464 672Q487 672 501 658T515 621Q515 599 501 585T464 570ZM284 570Q262 570 248 584T233 621Q233 644 247 658T284 672Q307 672 321 658T335
621Q335 599 321 585T284 570Z" />
<glyph unicode="&#xf0;" horiz-adv-x="614" d="M310 -14Q236 -14 181 17T95 105T64 237V249Q64 324 94 380T177 467T300 499Q358 499 398 480T463 431H474Q454 508 391 570T211 665L229 711Q332 681 405 625T517 479T556 261Q556 174 526 113T440 19T310 -14ZM310
40Q366 40 408 65T473 135T496 239V247Q496 336 446 391T310 446Q225 446 175 391T124 247V239Q124 150 174 95T310 40ZM294 550L256 576L366 727L404 701L294 550Z" />
<glyph unicode="&#xf1;" horiz-adv-x="612" d="M88 0V486H146V396H158Q176 435 217 465T336 496Q389 496 433 474T503 408T530 296V0H470V292Q470 372 430 407T323 442Q248 442 198 393T148 243V0H88ZM200 547L158 570L188 626Q198 644 214 655T252 667Q273 667
288 659T322 628Q336 612 345 602T365 592Q375 592 381 597T392 611L420 662L462 639L432 583Q422 565 407 554T368 542Q347 542 332 550T298 581Q285 597 276 607T255 617Q245 617 239 612T228 598L200 547Z" />
<glyph unicode="&#xf2;" horiz-adv-x="620" d="M310 -14Q236 -14 181 17T95 105T64 237V249Q64 324 94 380T180 468T310 500Q384 500 439 469T525 381T556 249V237Q556 162 526 106T440 18T310 -14ZM310 40Q396 40 446 94T496 239V247Q496 337 446 391T310 446Q225
446 175 392T124 247V239Q124 149 174 95T310 40ZM291 568L199 700H276L353 568H291Z" />
<glyph unicode="&#xf3;" horiz-adv-x="620" d="M310 -14Q236 -14 181 17T95 105T64 237V249Q64 324 94 380T180 468T310 500Q384 500 439 469T525 381T556 249V237Q556 162 526 106T440 18T310 -14ZM310 40Q396 40 446 94T496 239V247Q496 337 446 391T310 446Q225
446 175 392T124 247V239Q124 149 174 95T310 40ZM267 556L345 688H421L329 556H267Z" />
<glyph unicode="&#xf4;" horiz-adv-x="620" d="M310 -14Q236 -14 181 17T95 105T64 237V249Q64 324 94 380T180 468T310 500Q384 500 439 469T525 381T556 249V237Q556 162 526 106T440 18T310 -14ZM310 40Q396 40 446 94T496 239V247Q496 337 446 391T310 446Q225
446 175 392T124 247V239Q124 149 174 95T310 40ZM146 556L272 688H348L474 556H400L316 644H304L220 556H146Z" />
<glyph unicode="&#xf5;" horiz-adv-x="620" d="M310 -14Q236 -14 181 17T95 105T64 237V249Q64 324 94 380T180 468T310 500Q384 500 439 469T525 381T556 249V237Q556 162 526 106T440 18T310 -14ZM310 40Q396 40 446 94T496 239V247Q496 337 446 391T310 446Q225
446 175 392T124 247V239Q124 149 174 95T310 40ZM200 547L158 570L188 626Q198 644 214 655T252 667Q273 667 288 659T322 628Q336 612 345 602T365 592Q375 592 381 597T392 611L420 662L462 639L432 583Q422 565 407 554T368 542Q347 542 332 550T298 581Q285
597 276 607T255 617Q245 617 239 612T228 598L200 547Z" />
<glyph unicode="&#xf6;" horiz-adv-x="620" d="M310 -14Q236 -14 181 17T95 105T64 237V249Q64 324 94 380T180 468T310 500Q384 500 439 469T525 381T556 249V237Q556 162 526 106T440 18T310 -14ZM310 40Q396 40 446 94T496 239V247Q496 337 446 391T310 446Q225
446 175 392T124 247V239Q124 149 174 95T310 40ZM400 570Q378 570 364 584T349 621Q349 644 363 658T400 672Q423 672 437 658T451 621Q451 599 437 585T400 570ZM220 570Q198 570 184 584T169 621Q169 644 183 658T220 672Q243 672 257 658T271 621Q271 599 257
585T220 570Z" />
<glyph unicode="&#xf7;" horiz-adv-x="620" d="M100 322V378H520V322H100ZM310 139Q285 139 269 155T253 196Q253 221 269 237T310 253Q335 253 351 237T367 196Q367 171 351 155T310 139ZM310 447Q285 447 269 463T253 504Q253 529 269 545T310 561Q335 561 351
545T367 504Q367 479 351 463T310 447Z" />
<glyph unicode="&#xf8;" horiz-adv-x="620" d="M310 -14Q236 -14 181 17T95 105T64 237V249Q64 324 94 380T180 468T310 500Q384 500 439 469T525 381T556 249V237Q556 162 526 106T440 18T310 -14ZM310 40Q396 40 446 94T496 239V247Q496 337 446 391T310 446Q225
446 175 392T124 247V239Q124 149 174 95T310 40ZM168 -58L127 -35L451 537L492 514L168 -58Z" />
<glyph unicode="&#xf9;" horiz-adv-x="611" d="M275 -10Q223 -10 179 12T108 78T81 190V486H141V194Q141 115 181 80T288 44Q363 44 413 93T463 243V486H523V0H465V90H453Q435 51 394 21T275 -10ZM283 568L191 700H268L345 568H283Z" />
<glyph unicode="&#xfa;" horiz-adv-x="611" d="M275 -10Q223 -10 179 12T108 78T81 190V486H141V194Q141 115 181 80T288 44Q363 44 413 93T463 243V486H523V0H465V90H453Q435 51 394 21T275 -10ZM259 556L337 688H413L321 556H259Z" />
<glyph unicode="&#xfb;" horiz-adv-x="611" d="M275 -10Q223 -10 179 12T108 78T81 190V486H141V194Q141 115 181 80T288 44Q363 44 413 93T463 243V486H523V0H465V90H453Q435 51 394 21T275 -10ZM138 556L264 688H340L466 556H392L308 644H296L212 556H138Z" />
<glyph unicode="&#xfc;" horiz-adv-x="611" d="M275 -10Q223 -10 179 12T108 78T81 190V486H141V194Q141 115 181 80T288 44Q363 44 413 93T463 243V486H523V0H465V90H453Q435 51 394 21T275 -10ZM392 570Q370 570 356 584T341 621Q341 644 355 658T392 672Q415
672 429 658T443 621Q443 599 429 585T392 570ZM212 570Q190 570 176 584T161 621Q161 644 175 658T212 672Q235 672 249 658T263 621Q263 599 249 585T212 570Z" />
<glyph unicode="&#xfd;" horiz-adv-x="611" d="M149 -200V-146H433Q463 -146 463 -116V84H451Q439 60 418 39T362 4T275 -10Q223 -10 179 12T108 78T81 189V486H141V193Q141 114 181 79T288 44Q363 44 413 93T463 242V486H523V-124Q523 -160 504 -180T445 -200H149ZM260
556L338 688H414L322 556H260Z" />
<glyph unicode="&#xfe;" horiz-adv-x="644" d="M88 -200V700H147V401H158Q172 426 195 448T256 485T347 500Q413 500 465 470T549 383T580 249V237Q580 160 549 104T466 17T347 -14Q294 -14 257 0T196 37T158 84H147V-200H88ZM334 40Q417 40 468 93T519 239V247Q519
340 468 393T334 446Q252 446 200 393T147 247V239Q147 146 199 93T334 40Z" />
<glyph unicode="&#xff;" horiz-adv-x="611" d="M149 -200V-146H433Q463 -146 463 -116V84H451Q439 60 418 39T362 4T275 -10Q223 -10 179 12T108 78T81 189V486H141V193Q141 114 181 79T288 44Q363 44 413 93T463 242V486H523V-124Q523 -160 504 -180T445 -200H149ZM393
570Q371 570 357 584T342 621Q342 644 356 658T393 672Q416 672 430 658T444 621Q444 599 430 585T393 570ZM213 570Q191 570 177 584T162 621Q162 644 176 658T213 672Q236 672 250 658T264 621Q264 599 250 585T213 570Z" />
<glyph unicode="&#x2013;" horiz-adv-x="616" d="M84 230V286H532V230H84Z" />
<glyph unicode="&#x2014;" horiz-adv-x="920" d="M84 230V286H836V230H84Z" />
<glyph unicode="&#x2018;" horiz-adv-x="234" d="M160 714V672H136Q104 672 104 640V608H117Q141 608 157 593T174 553Q174 529 158 514T117 498Q93 498 77 514T60 555V638Q60 714 135 714H160Z" />
<glyph unicode="&#x2019;" horiz-adv-x="234" d="M74 498V540H98Q130 540 130 572V604H117Q93 604 77 619T60 659Q60 683 76 698T117 714Q141 714 157 698T174 657V574Q174 498 99 498H74Z" />
<glyph unicode="&#x201a;" horiz-adv-x="234" d="M74 -116V-74H98Q130 -74 130 -42V-10H117Q93 -10 77 5T60 45Q60 69 76 84T117 100Q141 100 157 84T174 43V-40Q174 -116 99 -116H74Z" />
<glyph unicode="&#x201c;" horiz-adv-x="388" d="M314 714V672H290Q258 672 258 640V608H271Q295 608 311 593T328 553Q328 529 312 514T271 498Q247 498 231 514T214 555V638Q214 714 289 714H314ZM160 714V672H136Q104 672 104 640V608H117Q141 608 157 593T174
553Q174 529 158 514T117 498Q93 498 77 514T60 555V638Q60 714 135 714H160Z" />
<glyph unicode="&#x201d;" horiz-adv-x="388" d="M74 498V540H98Q130 540 130 572V604H117Q93 604 77 619T60 659Q60 683 76 698T117 714Q141 714 157 698T174 657V574Q174 498 99 498H74ZM228 498V540H252Q284 540 284 572V604H271Q247 604 231 619T214 659Q214
683 230 698T271 714Q295 714 311 698T328 657V574Q328 498 253 498H228Z" />
<glyph unicode="&#x201e;" horiz-adv-x="388" d="M74 -116V-74H98Q130 -74 130 -42V-10H117Q93 -10 77 5T60 45Q60 69 76 84T117 100Q141 100 157 84T174 43V-40Q174 -116 99 -116H74ZM228 -116V-74H252Q284 -74 284 -42V-10H271Q247 -10 231 5T214 45Q214 69
230 84T271 100Q295 100 311 84T328 43V-40Q328 -116 253 -116H228Z" />
<glyph unicode="&#x2022;" horiz-adv-x="344" d="M172 150Q141 150 116 164T77 202T62 258Q62 289 76 313T116 352T172 366Q203 366 228 352T267 314T282 258Q282 227 268 203T228 164T172 150Z" />
<glyph unicode="&#x2039;" horiz-adv-x="454" d="M378 28L52 210V284L378 466H384V403L110 252V242L384 91V28H378Z" />
<glyph unicode="&#x203a;" horiz-adv-x="454" d="M70 28V91L344 242V252L70 403V466H76L402 284V210L76 28H70Z" />
</font>
</defs>
</svg>
